<svg id="Group_369" data-name="Group 369" xmlns="http://www.w3.org/2000/svg" viewBox="0 0 346.814 112.46">
  <defs>
    <style>
      .cls-1 {
        fill: #9aa340;
      }

      .cls-2 {
        fill: #002b4f;
      }
    </style>
  </defs>
  <rect id="Rectangle_195" data-name="Rectangle 195" class="cls-1" width="1.921" height="4.953" transform="translate(207.158 63.403)"/>
  <rect id="Rectangle_196" data-name="Rectangle 196" class="cls-1" width="1.921" height="4.91" transform="translate(137.095 63.403)"/>
  <rect id="Rectangle_197" data-name="Rectangle 197" class="cls-1" width="3.501" height="3.714" transform="translate(175.862 8.454)"/>
  <rect id="Rectangle_198" data-name="Rectangle 198" class="cls-1" width="77.834" height="1.836" transform="translate(134.106 73.692)"/>
  <rect id="Rectangle_199" data-name="Rectangle 199" class="cls-1" width="2.647" height="4.91" transform="translate(201.992 63.403)"/>
  <rect id="Rectangle_200" data-name="Rectangle 200" class="cls-1" width="3.33" height="4.91" transform="translate(196.142 63.403)"/>
  <rect id="Rectangle_201" data-name="Rectangle 201" class="cls-1" width="3.288" height="4.91" transform="translate(190.336 63.403)"/>
  <rect id="Rectangle_202" data-name="Rectangle 202" class="cls-1" width="3.629" height="4.91" transform="translate(184.188 63.403)"/>
  <rect id="Rectangle_203" data-name="Rectangle 203" class="cls-1" width="3.885" height="4.91" transform="translate(177.783 63.403)"/>
  <rect id="Rectangle_204" data-name="Rectangle 204" class="cls-1" width="4.398" height="4.91" transform="translate(170.867 63.403)"/>
  <rect id="Rectangle_205" data-name="Rectangle 205" class="cls-1" width="3.885" height="4.91" transform="translate(164.463 63.403)"/>
  <rect id="Rectangle_206" data-name="Rectangle 206" class="cls-1" width="3.586" height="4.91" transform="translate(158.357 63.403)"/>
  <rect id="Rectangle_207" data-name="Rectangle 207" class="cls-1" width="3.288" height="4.91" transform="translate(152.551 63.403)"/>
  <rect id="Rectangle_208" data-name="Rectangle 208" class="cls-1" width="3.33" height="4.91" transform="translate(146.701 63.403)"/>
  <rect id="Rectangle_209" data-name="Rectangle 209" class="cls-1" width="2.647" height="4.91" transform="translate(141.535 63.403)"/>
  <path id="Path_206" data-name="Path 206" class="cls-1" d="M402.52,126.58H385.1V125h17.42Zm0,2.946H385.1V127.9h17.42Z" transform="translate(-220.68 -71.588)"/>
  <path id="Path_207" data-name="Path 207" class="cls-1" d="M445.842,126.422H434.4V124.8h11.442Zm0,3.074H434.4v-1.622h11.442Z" transform="translate(-248.931 -71.473)"/>
  <path id="Path_208" data-name="Path 208" class="cls-1" d="M476.06,126.422H469.4V124.8h6.661Zm0,3.074H469.4v-1.622h6.661Z" transform="translate(-268.988 -71.473)"/>
  <path id="Path_209" data-name="Path 209" class="cls-1" d="M332.261,126.422H325.6V124.8h6.66Zm0,3.074H325.6v-1.622h6.66Z" transform="translate(-186.584 -71.473)"/>
  <path id="Path_210" data-name="Path 210" class="cls-1" d="M396.656,42.6c3.843,11.442,5.678,21.22,5.678,30.613,0,.939,0,1.879-.043,2.818V76.2H385.043V76.03C385,75.048,385,74.152,385,73.255a95.448,95.448,0,0,1,5.508-30.613h6.148Z" transform="translate(-220.623 -24.369)"/>
  <path id="Path_211" data-name="Path 211" class="cls-1" d="M422.481,42.543a54.375,54.375,0,0,1,13.406,33.345v.256H424.573V74.223A69.794,69.794,0,0,0,417.4,42.5h5.081Z" transform="translate(-239.19 -24.312)"/>
  <path id="Path_212" data-name="Path 212" class="cls-1" d="M436.9,42.6a47.165,47.165,0,0,1,18.188,33.388V76.2h-6.66V76.03A48.888,48.888,0,0,0,432.8,42.6Z" transform="translate(-248.014 -24.369)"/>
  <rect id="Rectangle_210" data-name="Rectangle 210" class="cls-1" width="77.834" height="1.836" transform="translate(134.106 70.362)"/>
  <rect id="Rectangle_211" data-name="Rectangle 211" class="cls-1" width="77.834" height="1.836" transform="translate(134.106 59.56)"/>
  <rect id="Rectangle_212" data-name="Rectangle 212" class="cls-1" width="3.245" height="3.714" transform="translate(162.2 8.454)"/>
  <rect id="Rectangle_213" data-name="Rectangle 213" class="cls-1" width="3.33" height="3.714" transform="translate(166.64 8.454)"/>
  <rect id="Rectangle_214" data-name="Rectangle 214" class="cls-1" width="3.117" height="3.714" transform="translate(180.687 8.454)"/>
  <rect id="Rectangle_215" data-name="Rectangle 215" class="cls-1" width="3.373" height="3.714" transform="translate(171.251 8.454)"/>
  <path id="Path_213" data-name="Path 213" class="cls-1" d="M396.5,6.9h7.344V3.316a3.655,3.655,0,0,0-7.3.3Z" transform="translate(-227.213 0.1)"/>
  <path id="Path_214" data-name="Path 214" class="cls-1" d="M420.5,9.492A2.078,2.078,0,0,1,422.635,7.4a2.15,2.15,0,0,1,2.135,2.177V11.2H420.5Z" transform="translate(-240.966 -4.198)"/>
  <path id="Path_215" data-name="Path 215" class="cls-1" d="M379.9,9.492A2.078,2.078,0,0,1,382.035,7.4a2.15,2.15,0,0,1,2.135,2.177V11.2H379.9Z" transform="translate(-217.7 -4.198)"/>
  <path id="Path_216" data-name="Path 216" class="cls-1" d="M404.355,32.525l-.342-1.025h-3.757A8.862,8.862,0,0,0,400,32.525Z" transform="translate(-229.219 -18.008)"/>
  <path id="Path_217" data-name="Path 217" class="cls-1" d="M404.193,37.667c-.128-.342-.213-.726-.342-1.067h-4.91a10.3,10.3,0,0,1-.342,1.067Z" transform="translate(-228.416 -20.931)"/>
  <path id="Path_218" data-name="Path 218" class="cls-1" d="M417.112,32.467c-.6-.64-.982-1.067-.982-1.067H412.8l.512,1.067Z" transform="translate(-236.554 -17.951)"/>
  <path id="Path_219" data-name="Path 219" class="cls-1" d="M420.309,37.667c-.342-.342-.64-.726-.982-1.067H415.1l.512,1.067Z" transform="translate(-237.872 -20.931)"/>
  <path id="Path_220" data-name="Path 220" class="cls-1" d="M428.212,32.467c-.769-.64-1.238-1.067-1.238-1.067H423.9c.384.384.683.726,1.025,1.025Z" transform="translate(-242.914 -17.951)"/>
  <path id="Path_221" data-name="Path 221" class="cls-1" d="M429.325,37.667c-.3-.342-.683-.726-1.025-1.067h3.544c.342.3.854.726,1.281,1.067Z" transform="translate(-245.436 -20.931)"/>
  <path id="Path_222" data-name="Path 222" class="cls-1" d="M347.887,42.6A48.8,48.8,0,0,0,332.26,76.03V76.2H325.6v-.213A47.014,47.014,0,0,1,343.788,42.6Z" transform="translate(-186.584 -24.369)"/>
  <path id="Path_223" data-name="Path 223" class="cls-1" d="M361.242,126.422H349.8V124.8h11.442Zm0,3.074H349.8v-1.622h11.442Z" transform="translate(-200.452 -71.473)"/>
  <path id="Path_224" data-name="Path 224" class="cls-1" d="M368.287,42.6a69.666,69.666,0,0,0-7.173,31.723v1.921H349.8v-.256a54.375,54.375,0,0,1,13.406-33.345h5.081Z" transform="translate(-200.452 -24.369)"/>
  <path id="Path_225" data-name="Path 225" class="cls-1" d="M388,37.667l.512-1.067h-4.227c-.3.342-.64.683-.982,1.067Z" transform="translate(-219.649 -20.931)"/>
  <path id="Path_226" data-name="Path 226" class="cls-1" d="M391.5,32.525l.512-1.025H388.6s-.342.427-.9,1.025Z" transform="translate(-222.17 -18.008)"/>
  <path id="Path_227" data-name="Path 227" class="cls-1" d="M374.8,37.667c.3-.342.64-.683,1.025-1.067h-3.544c-.384.342-.811.683-1.281,1.067Z" transform="translate(-212.6 -20.931)"/>
  <path id="Path_228" data-name="Path 228" class="cls-1" d="M379.988,32.525l1.025-1.025h-3.074s-.47.384-1.238,1.025Z" transform="translate(-215.867 -18.008)"/>
  <g id="Group_154" data-name="Group 154" transform="translate(94.186 84.964)">
    <path id="Path_229" data-name="Path 229" class="cls-2" d="M228.755,204.223a3.042,3.042,0,0,1-.769,1.153,3.369,3.369,0,0,1-1.238.769,4.723,4.723,0,0,1-1.58.3h-2.732v4.739H220.6V199.1h4.568a3.727,3.727,0,0,1,1.58.3,3.369,3.369,0,0,1,1.238.769,3.412,3.412,0,0,1,.769,1.153,4.158,4.158,0,0,1,.256,1.452A3.259,3.259,0,0,1,228.755,204.223Zm-2.135-2.946a2.228,2.228,0,0,0-1.537-.512h-2.647v4.013h2.647a2.228,2.228,0,0,0,1.537-.512,2.167,2.167,0,0,0,0-2.989Z" transform="translate(-220.6 -199.015)"/>
    <path id="Path_230" data-name="Path 230" class="cls-2" d="M253.724,206.628a5.914,5.914,0,0,1-.128,1.281,4.454,4.454,0,0,1-.342,1.067,3.516,3.516,0,0,1-.683.939,4.288,4.288,0,0,1-1.409.939,4.656,4.656,0,0,1-3.5,0,5.08,5.08,0,0,1-1.409-.939,3.516,3.516,0,0,1-.683-.939,4.455,4.455,0,0,1-.342-1.067,5.916,5.916,0,0,1-.128-1.281v-3.159a5.916,5.916,0,0,1,.128-1.281,4.453,4.453,0,0,1,.342-1.067,3.515,3.515,0,0,1,.683-.939,4.288,4.288,0,0,1,1.409-.939,4.506,4.506,0,0,1,4.91.939,3.516,3.516,0,0,1,.683.939,4.453,4.453,0,0,1,.342,1.067,5.914,5.914,0,0,1,.128,1.281v3.159Zm-1.836-3.117a7.084,7.084,0,0,0-.085-1.025,2.149,2.149,0,0,0-.213-.683,2.009,2.009,0,0,0-.384-.512,2.278,2.278,0,0,0-.811-.555,2.579,2.579,0,0,0-1.025-.213,2.935,2.935,0,0,0-1.025.213,2.121,2.121,0,0,0-.811.555l-.384.512a2.578,2.578,0,0,0-.213.683,6.131,6.131,0,0,0-.085,1.025c0,.384-.043.9-.043,1.537,0,.6,0,1.11.043,1.537a7.084,7.084,0,0,0,.085,1.025,2.149,2.149,0,0,0,.213.683,2.007,2.007,0,0,0,.384.512,2.277,2.277,0,0,0,.811.555,2.748,2.748,0,0,0,1.025.213,2.935,2.935,0,0,0,1.025-.213,2.5,2.5,0,0,0,.811-.555l.384-.512a2.576,2.576,0,0,0,.213-.683,6.132,6.132,0,0,0,.085-1.025c0-.384.043-.9.043-1.537C251.889,204.408,251.889,203.9,251.889,203.511Z" transform="translate(-234.64 -198.9)"/>
    <path id="Path_231" data-name="Path 231" class="cls-2" d="M280.624,206.4a6.627,6.627,0,0,1-.128,1.324,5.888,5.888,0,0,1-.342,1.238,3.094,3.094,0,0,1-.768,1.067,3.523,3.523,0,0,1-1.366.854,5.562,5.562,0,0,1-1.751.3H272V199.1h4.27a4.569,4.569,0,0,1,1.751.3,3.794,3.794,0,0,1,2.135,1.921,3.846,3.846,0,0,1,.342,1.2l.128,1.281v2.6Zm-1.921-3.458a2.336,2.336,0,0,0-.555-1.366,2.64,2.64,0,0,0-2.049-.811h-2.22v8.8h2.22a2.64,2.64,0,0,0,2.049-.811,2.484,2.484,0,0,0,.555-1.452c.043-.64.085-1.366.085-2.22A15.8,15.8,0,0,0,278.7,202.943Z" transform="translate(-250.055 -199.015)"/>
    <path id="Path_232" data-name="Path 232" class="cls-2" d="M299,211.183V199.1h7.728v1.665h-5.892v3.544h5.038v1.622h-5.038v3.629h5.892v1.665H299Z" transform="translate(-265.527 -199.015)"/>
    <path id="Path_233" data-name="Path 233" class="cls-2" d="M330,211.183l-2.562-5.081h-2.305v5.081H323.3V199.1H328a4.137,4.137,0,0,1,1.537.256,3.736,3.736,0,0,1,1.2.726,2.888,2.888,0,0,1,.769,1.11,3.762,3.762,0,0,1,.256,1.409,3.2,3.2,0,0,1-.683,2.135,3.51,3.51,0,0,1-1.708,1.11l2.775,5.337H330Zm-.6-9.948a2.19,2.19,0,0,0-1.494-.512h-2.733v3.8h2.733a2.19,2.19,0,0,0,1.494-.512,1.775,1.775,0,0,0,.555-1.409A1.9,1.9,0,0,0,329.405,201.235Z" transform="translate(-279.452 -199.015)"/>
    <path id="Path_234" data-name="Path 234" class="cls-2" d="M359.8,211.183V199.1h1.836v10.46h5.849v1.665H359.8Z" transform="translate(-300.368 -199.015)"/>
    <path id="Path_235" data-name="Path 235" class="cls-2" d="M383.1,211.183V199.1h7.728v1.665h-5.892v3.544h5.038v1.622h-5.038v3.629h5.892v1.665H383.1Z" transform="translate(-313.72 -199.015)"/>
    <path id="Path_236" data-name="Path 236" class="cls-2" d="M415,208.436a3.627,3.627,0,0,1-.854,1.452,4.55,4.55,0,0,1-1.537,1.067,4.963,4.963,0,0,1-1.793.342,4.426,4.426,0,0,1-3.159-1.281,3.514,3.514,0,0,1-.683-.939,4.455,4.455,0,0,1-.342-1.067,5.915,5.915,0,0,1-.128-1.281v-3.159a5.915,5.915,0,0,1,.128-1.281,4.457,4.457,0,0,1,.342-1.067,3.515,3.515,0,0,1,.683-.939,4.289,4.289,0,0,1,1.409-.939,4.569,4.569,0,0,1,1.751-.342,4.212,4.212,0,0,1,1.708.3,4.592,4.592,0,0,1,1.324.811,3.527,3.527,0,0,1,.9,1.2,5.775,5.775,0,0,1,.47,1.452h-1.836a2.745,2.745,0,0,0-.9-1.537,2.383,2.383,0,0,0-1.665-.555,2.532,2.532,0,0,0-.982.213,1.975,1.975,0,0,0-.768.555l-.384.512a2.579,2.579,0,0,0-.213.683c-.043.3-.085.6-.128,1.025-.043.384-.043.9-.043,1.537,0,.6,0,1.11.043,1.537a5.519,5.519,0,0,0,.128,1.025,2.15,2.15,0,0,0,.213.683,2.007,2.007,0,0,0,.384.512,3.55,3.55,0,0,0,.768.555,2.532,2.532,0,0,0,.982.213,3.207,3.207,0,0,0,1.11-.213,1.819,1.819,0,0,0,.854-.64,2.408,2.408,0,0,0,.47-.854,3.845,3.845,0,0,0,.128-1.067v-.683h-2.6v-1.537h4.483v1.836A6.448,6.448,0,0,1,415,208.436Z" transform="translate(-327.129 -198.957)"/>
    <path id="Path_237" data-name="Path 237" class="cls-2" d="M433.7,211.183V199.1h1.836v12.083Z" transform="translate(-342.716 -199.015)"/>
    <path id="Path_238" data-name="Path 238" class="cls-2" d="M451.683,209.2a3.221,3.221,0,0,1-.9,1.11,3.741,3.741,0,0,1-1.366.683,5.589,5.589,0,0,1-1.751.256,8.07,8.07,0,0,1-2.391-.342,4.807,4.807,0,0,1-1.879-1.238l1.238-1.2a3.6,3.6,0,0,0,1.409.9,5.235,5.235,0,0,0,1.665.256,3.142,3.142,0,0,0,1.836-.47,1.624,1.624,0,0,0,.64-1.366,1.575,1.575,0,0,0-.47-1.238,3.558,3.558,0,0,0-.512-.342,2.93,2.93,0,0,0-.811-.171l-1.409-.213a4.1,4.1,0,0,1-2.306-.982,2.991,2.991,0,0,1-.9-2.306,3.4,3.4,0,0,1,.3-1.452,3.121,3.121,0,0,1,.811-1.11,3.722,3.722,0,0,1,1.281-.726,5.316,5.316,0,0,1,1.708-.256,6.134,6.134,0,0,1,2.092.342,4.431,4.431,0,0,1,1.665,1.067l-1.153,1.153a3.22,3.22,0,0,0-1.2-.726,4.876,4.876,0,0,0-1.409-.213,2.08,2.08,0,0,0-1.622.555,1.742,1.742,0,0,0-.555,1.366,1.713,1.713,0,0,0,.128.64,1.787,1.787,0,0,0,.342.512,2.372,2.372,0,0,0,1.366.555l1.366.213a7.034,7.034,0,0,1,1.366.342,3.173,3.173,0,0,1,.9.555,2.645,2.645,0,0,1,.726,1.067,3.762,3.762,0,0,1,.256,1.409C451.982,208.265,451.9,208.735,451.683,209.2Z" transform="translate(-348.275 -198.957)"/>
    <path id="Path_239" data-name="Path 239" class="cls-2" d="M469.7,211.183V199.1h1.836v10.46h5.849v1.665H469.7Z" transform="translate(-363.346 -199.015)"/>
    <path id="Path_240" data-name="Path 240" class="cls-2" d="M497.854,211.183,497,208.749h-4.782l-.854,2.434H489.4l4.44-12.083h1.494l4.44,12.083Zm-3.159-9.35-1.879,5.38h3.715Z" transform="translate(-374.635 -199.015)"/>
    <path id="Path_241" data-name="Path 241" class="cls-2" d="M518.466,200.765v10.46H516.63v-10.46H513.3V199.1h8.5v1.665Z" transform="translate(-388.331 -199.015)"/>
    <path id="Path_242" data-name="Path 242" class="cls-2" d="M538.5,211.183V199.1h1.836v12.083Z" transform="translate(-402.771 -199.015)"/>
    <path id="Path_243" data-name="Path 243" class="cls-2" d="M552.58,211.183h-1.409L547.2,199.1h1.921l2.775,8.8,2.775-8.8h1.921Z" transform="translate(-407.757 -199.015)"/>
    <path id="Path_244" data-name="Path 244" class="cls-2" d="M580.825,206.628a5.916,5.916,0,0,1-.128,1.281,4.458,4.458,0,0,1-.342,1.067,3.517,3.517,0,0,1-.683.939,4.287,4.287,0,0,1-1.409.939,4.656,4.656,0,0,1-3.5,0,5.079,5.079,0,0,1-1.409-.939,3.515,3.515,0,0,1-.683-.939,4.458,4.458,0,0,1-.342-1.067,5.915,5.915,0,0,1-.128-1.281v-3.159a5.916,5.916,0,0,1,.128-1.281,4.457,4.457,0,0,1,.342-1.067,3.516,3.516,0,0,1,.683-.939,4.288,4.288,0,0,1,1.409-.939,4.657,4.657,0,0,1,3.5,0,4.523,4.523,0,0,1,1.409.939,3.516,3.516,0,0,1,.683.939,4.457,4.457,0,0,1,.342,1.067,5.916,5.916,0,0,1,.128,1.281v3.159Zm-1.836-3.117a7.079,7.079,0,0,0-.085-1.025,2.15,2.15,0,0,0-.213-.683,2.007,2.007,0,0,0-.384-.512,2.278,2.278,0,0,0-.811-.555,2.58,2.58,0,0,0-1.025-.213,2.935,2.935,0,0,0-1.025.213,2.121,2.121,0,0,0-.811.555l-.384.512a2.575,2.575,0,0,0-.213.683,6.127,6.127,0,0,0-.085,1.025c0,.384-.043.9-.043,1.537,0,.6,0,1.11.043,1.537a7.07,7.07,0,0,0,.085,1.025,2.147,2.147,0,0,0,.213.683,2.01,2.01,0,0,0,.384.512,2.277,2.277,0,0,0,.811.555,2.748,2.748,0,0,0,1.025.213,2.936,2.936,0,0,0,1.025-.213,2.5,2.5,0,0,0,.811-.555l.384-.512a2.576,2.576,0,0,0,.213-.683,6.127,6.127,0,0,0,.085-1.025c0-.384.043-.9.043-1.537C578.989,204.408,578.989,203.9,578.989,203.511Z" transform="translate(-422.083 -198.9)"/>
  </g>
  <path id="Path_245" data-name="Path 245" class="cls-2" d="M79.482,129.564H75.127a.428.428,0,0,1-.427-.427V105.527a.428.428,0,0,1,.427-.427h4.355a.428.428,0,0,1,.427.427v23.611A.459.459,0,0,1,79.482,129.564Z" transform="translate(-42.807 -60.184)"/>
  <path id="Path_246" data-name="Path 246" class="cls-2" d="M79.482,86.752H75.127a.428.428,0,0,1-.427-.427v-4.4a.428.428,0,0,1,.427-.427h4.4a.428.428,0,0,1,.427.427v4.4A.5.5,0,0,1,79.482,86.752Z" transform="translate(-42.807 -46.661)"/>
  <path id="Path_247" data-name="Path 247" class="cls-2" d="M223.182,129.564h-4.355a.428.428,0,0,1-.427-.427V105.527a.428.428,0,0,1,.427-.427h4.355a.428.428,0,0,1,.427.427v23.611A.428.428,0,0,1,223.182,129.564Z" transform="translate(-125.153 -60.184)"/>
  <path id="Path_248" data-name="Path 248" class="cls-2" d="M223.125,86.752h-4.4a.428.428,0,0,1-.427-.427v-4.4a.428.428,0,0,1,.427-.427h4.4a.428.428,0,0,1,.427.427v4.4A.428.428,0,0,1,223.125,86.752Z" transform="translate(-125.096 -46.661)"/>
  <path id="Path_249" data-name="Path 249" class="cls-2" d="M24.379,102.65a27.3,27.3,0,0,1-.3,3.757,13.8,13.8,0,0,1-1.025,3.5,9.747,9.747,0,0,1-2.135,3.074,9.847,9.847,0,0,1-3.928,2.434,15.441,15.441,0,0,1-4.953.811H.47a.474.474,0,0,1-.47-.47V82.37a.474.474,0,0,1,.47-.47H12.083a14.184,14.184,0,0,1,4.953.811,10.683,10.683,0,0,1,3.928,2.434A10.321,10.321,0,0,1,23.1,88.176a15.4,15.4,0,0,1,1.025,3.373,20.333,20.333,0,0,1,.3,3.586c0,1.238.043,2.476.043,3.714C24.422,100.088,24.422,101.369,24.379,102.65Zm-5.422-9.82a6.7,6.7,0,0,0-1.58-3.928A7.559,7.559,0,0,0,11.528,86.6H5.678a.474.474,0,0,0-.47.47v24.08a.474.474,0,0,0,.47.47h5.849a7.559,7.559,0,0,0,5.849-2.306,6.778,6.778,0,0,0,1.58-4.184c.171-1.793.256-3.885.256-6.234A60.541,60.541,0,0,0,18.957,92.83Z" transform="translate(0 -46.89)"/>
  <path id="Path_250" data-name="Path 250" class="cls-2" d="M265.753,122.375a9.235,9.235,0,0,1-2.306,4.184,9.336,9.336,0,0,1-3.031,2.092,11.867,11.867,0,0,1-8.624,0,9.615,9.615,0,0,1-2.989-2.092,9.235,9.235,0,0,1-2.306-4.184,23.008,23.008,0,0,1-.6-5.465,22.633,22.633,0,0,1,.6-5.422A9.235,9.235,0,0,1,248.8,107.3a9.615,9.615,0,0,1,2.989-2.092,10.1,10.1,0,0,1,4.312-.811,10.231,10.231,0,0,1,4.312.811,9.819,9.819,0,0,1,3.031,2.092,9.235,9.235,0,0,1,2.306,4.184,22.893,22.893,0,0,1,.6,5.422A23.27,23.27,0,0,1,265.753,122.375Zm-4.611-9.308a5.186,5.186,0,0,0-1.409-2.9,5.323,5.323,0,0,0-7.216,0,5.327,5.327,0,0,0-1.409,2.9,24.309,24.309,0,0,0,0,7.6,5.186,5.186,0,0,0,1.409,2.9,4.8,4.8,0,0,0,3.586,1.452,4.891,4.891,0,0,0,3.629-1.452,5.327,5.327,0,0,0,1.409-2.9,21.762,21.762,0,0,0,.3-3.8A26.886,26.886,0,0,0,261.142,113.067Z" transform="translate(-140.912 -59.783)"/>
  <path id="Path_251" data-name="Path 251" class="cls-2" d="M111.492,104.4a14.21,14.21,0,0,0-5.038.769A8.853,8.853,0,0,0,103,107.645a.413.413,0,0,0,.043.6c.128.128,1.836,1.751,2.6,2.434a.46.46,0,0,0,.64-.043,5.906,5.906,0,0,1,1.879-1.494,8.079,8.079,0,0,1,3.2-.512,6.078,6.078,0,0,1,4.141,1.153,4.555,4.555,0,0,1,1.238,3.458v1.281a.428.428,0,0,1-.427.427h-6.063c-2.818,0-4.953.64-6.362,1.964a6.6,6.6,0,0,0-2.092,5.081,7.3,7.3,0,0,0,1.921,5.252,7.178,7.178,0,0,0,2.69,1.665,11.339,11.339,0,0,0,3.885.555,10.247,10.247,0,0,0,3.715-.6,8.725,8.725,0,0,0,2.818-1.921v1.793a.428.428,0,0,0,.427.427h3.971a.428.428,0,0,0,.427-.427V112.768C121.568,107.175,118.238,104.4,111.492,104.4Zm5.166,15.925a4.986,4.986,0,0,1-1.067,3.629,4.189,4.189,0,0,1-2.092,1.2,11.55,11.55,0,0,1-2.519.213,5.358,5.358,0,0,1-3.416-.9,3.116,3.116,0,0,1-1.067-2.562,3.232,3.232,0,0,1,1.11-2.6,5.114,5.114,0,0,1,3.288-.939h5.721v1.964Z" transform="translate(-58.336 -59.783)"/>
  <path id="Path_252" data-name="Path 252" class="cls-2" d="M183.865,106.464a6.736,6.736,0,0,0-2.306-1.452,9.331,9.331,0,0,0-3.2-.512,8.675,8.675,0,0,0-3.8.811,6.806,6.806,0,0,0-2.69,2.135V105.7h0v-.512a.428.428,0,0,0-.427-.427h-4.013a.428.428,0,0,0-.427.427v23.653a.428.428,0,0,0,.427.427h4.1a.428.428,0,0,0,.427-.427V114.405a5.542,5.542,0,0,1,1.409-4.013,4.58,4.58,0,0,1,3.458-1.452,4.063,4.063,0,0,1,2.049.427,7.656,7.656,0,0,1,1.324.939.454.454,0,0,0,.6,0c.171-.171,2.263-2.263,3.117-3.074A.675.675,0,0,0,183.865,106.464Z" transform="translate(-95.699 -59.841)"/>
  <path id="Path_253" data-name="Path 253" class="cls-2" d="M123.733,87.108h2.818a.527.527,0,0,0,.342-.171l3.586-4.654a.427.427,0,0,0-.342-.683h-4.355a.373.373,0,0,0-.384.256l-2.049,4.611A.455.455,0,0,0,123.733,87.108Z" transform="translate(-70.663 -46.718)"/>
  <g id="Group_155" data-name="Group 155" transform="translate(266.291 34.839)">
    <path id="Path_254" data-name="Path 254" class="cls-2" d="M628.582,129.564h-4.355a.428.428,0,0,1-.427-.427V105.527a.428.428,0,0,1,.427-.427h4.355a.428.428,0,0,1,.427.427v23.611A.459.459,0,0,1,628.582,129.564Z" transform="translate(-623.757 -95.024)"/>
    <path id="Path_255" data-name="Path 255" class="cls-2" d="M628.525,86.752h-4.4a.428.428,0,0,1-.427-.427v-4.4a.428.428,0,0,1,.427-.427h4.4a.428.428,0,0,1,.427.427v4.4A.459.459,0,0,1,628.525,86.752Z" transform="translate(-623.7 -81.5)"/>
  </g>
  <g id="Group_156" data-name="Group 156" transform="translate(300.575 34.839)">
    <path id="Path_256" data-name="Path 256" class="cls-2" d="M708.882,129.564h-4.355a.428.428,0,0,1-.427-.427V105.527a.428.428,0,0,1,.427-.427h4.355a.428.428,0,0,1,.427.427v23.611A.428.428,0,0,1,708.882,129.564Z" transform="translate(-704.057 -95.024)"/>
    <path id="Path_257" data-name="Path 257" class="cls-2" d="M708.824,86.752h-4.4a.428.428,0,0,1-.427-.427v-4.4a.428.428,0,0,1,.427-.427h4.4a.428.428,0,0,1,.427.427v4.4A.428.428,0,0,1,708.824,86.752Z" transform="translate(-704 -81.5)"/>
  </g>
  <path id="Path_258" data-name="Path 258" class="cls-2" d="M541.435,103.2a22.8,22.8,0,0,1-.342,3.629,11.475,11.475,0,0,1-.982,3.031,10.2,10.2,0,0,1-1.921,2.647,12.366,12.366,0,0,1-4.056,2.732,12.765,12.765,0,0,1-5.038.939,12.15,12.15,0,0,1-9.009-3.672,9.072,9.072,0,0,1-1.921-2.647,12.007,12.007,0,0,1-.982-3.031,19.058,19.058,0,0,1-.342-3.629c0-1.324-.043-2.818-.043-4.483,0-1.622,0-3.117.043-4.44a29.19,29.19,0,0,1,.342-3.629,13.281,13.281,0,0,1,.982-3.031,10.2,10.2,0,0,1,1.921-2.647A12.15,12.15,0,0,1,529.1,81.3a12.344,12.344,0,0,1,9.094,3.672,9.071,9.071,0,0,1,1.921,2.647,12.006,12.006,0,0,1,.982,3.031,23.3,23.3,0,0,1,.342,3.629c.043,1.324.043,2.818.043,4.44C541.478,100.385,541.478,101.879,541.435,103.2Zm-5.252-8.8a17.377,17.377,0,0,0-.3-2.9,5.9,5.9,0,0,0-.64-1.964,4.97,4.97,0,0,0-1.025-1.452,6.634,6.634,0,0,0-2.263-1.537,7.151,7.151,0,0,0-2.861-.6,7,7,0,0,0-2.86.6,7.075,7.075,0,0,0-2.263,1.537,6.44,6.44,0,0,0-1.025,1.452,8.839,8.839,0,0,0-.64,1.964,22.671,22.671,0,0,0-.3,2.9c-.043,1.153-.085,2.562-.085,4.312s.043,3.159.085,4.312a17.4,17.4,0,0,0,.3,2.9,5.9,5.9,0,0,0,.64,1.964,4.973,4.973,0,0,0,1.025,1.452,6.633,6.633,0,0,0,2.263,1.537,7.15,7.15,0,0,0,2.86.6,7,7,0,0,0,2.861-.6,7.073,7.073,0,0,0,2.263-1.537,6.434,6.434,0,0,0,1.025-1.452,8.836,8.836,0,0,0,.64-1.964,22.637,22.637,0,0,0,.3-2.9c.043-1.153.085-2.562.085-4.312C536.269,97.012,536.226,95.56,536.184,94.407Z" transform="translate(-296.15 -46.546)"/>
  <path id="Path_259" data-name="Path 259" class="cls-2" d="M664.228,128.608a10.853,10.853,0,0,1-4.44.811,11.664,11.664,0,0,1-4.013-.683,8.666,8.666,0,0,1-3.458-2.177,11.059,11.059,0,0,1-2.476-3.885,18.417,18.417,0,0,1,0-11.613,10.866,10.866,0,0,1,2.476-3.843,9.185,9.185,0,0,1,3.458-2.135,12.775,12.775,0,0,1,4.013-.683,10.853,10.853,0,0,1,4.44.811,9.634,9.634,0,0,1,3.288,2.306.425.425,0,0,1,0,.64c-.726.726-2.6,2.519-2.732,2.647a.464.464,0,0,1-.64,0,6.765,6.765,0,0,0-1.879-1.452,5.573,5.573,0,0,0-2.476-.555,5.322,5.322,0,0,0-4.526,2.177,5.683,5.683,0,0,0-1.153,2.391,16.1,16.1,0,0,0-.3,3.544,16.788,16.788,0,0,0,.3,3.586,5.854,5.854,0,0,0,1.153,2.434,5.376,5.376,0,0,0,4.526,2.177,4.941,4.941,0,0,0,2.476-.555,7.7,7.7,0,0,0,1.879-1.452.413.413,0,0,1,.6,0c.043.043,1.964,1.879,2.732,2.647a.412.412,0,0,1,0,.6A11.451,11.451,0,0,1,664.228,128.608Z" transform="translate(-371.85 -59.783)"/>
  <path id="Path_260" data-name="Path 260" class="cls-2" d="M737.692,104.4a14.21,14.21,0,0,0-5.038.769,8.854,8.854,0,0,0-3.458,2.476.413.413,0,0,0,.043.6c.128.128,1.836,1.751,2.6,2.434a.46.46,0,0,0,.64-.043,5.907,5.907,0,0,1,1.879-1.494,8.079,8.079,0,0,1,3.2-.512,6.077,6.077,0,0,1,4.141,1.153,4.555,4.555,0,0,1,1.238,3.458v1.281a.428.428,0,0,1-.427.427h-6.063c-2.818,0-4.953.64-6.362,1.964A6.6,6.6,0,0,0,728,121.991a7.3,7.3,0,0,0,1.921,5.252,7.177,7.177,0,0,0,2.69,1.665,11.339,11.339,0,0,0,3.885.555,10.247,10.247,0,0,0,3.714-.6,8.724,8.724,0,0,0,2.818-1.921v1.793a.428.428,0,0,0,.427.427h3.971a.428.428,0,0,0,.427-.427V112.768C747.768,107.175,744.4,104.4,737.692,104.4Zm5.166,15.925a4.986,4.986,0,0,1-1.067,3.629,4.189,4.189,0,0,1-2.092,1.2,11.551,11.551,0,0,1-2.519.213,5.358,5.358,0,0,1-3.416-.9,3.116,3.116,0,0,1-1.067-2.562,3.232,3.232,0,0,1,1.11-2.6,5.114,5.114,0,0,1,3.288-.939h5.721v1.964Z" transform="translate(-417.178 -59.783)"/>
  <path id="Path_261" data-name="Path 261" class="cls-2" d="M592.711,86.31a2.507,2.507,0,0,1,2.049-.726h1.75a.428.428,0,0,0,.427-.427v-3.33a.428.428,0,0,0-.427-.427h-2.647a7.174,7.174,0,0,0-2.989.6,5.927,5.927,0,0,0-2.092,1.537,6.866,6.866,0,0,0-1.238,2.177,8.429,8.429,0,0,0-.427,2.519v3.757h-2.391a.428.428,0,0,0-.427.427v2.946a.428.428,0,0,0,.427.427h2.391v19.853a.428.428,0,0,0,.427.427H591.6a.428.428,0,0,0,.427-.427V95.788h4.526a.428.428,0,0,0,.427-.427V92.415a.428.428,0,0,0-.427-.427h-4.44v-3.5A3.02,3.02,0,0,1,592.711,86.31Z" transform="translate(-334.831 -46.603)"/>
  <path id="Path_262" data-name="Path 262" class="cls-2" d="M794.026,87.109h-4.1a.428.428,0,0,1-.427-.427V82.327a.428.428,0,0,1,.427-.427h4.1a.428.428,0,0,1,.427.427v4.355A.459.459,0,0,1,794.026,87.109Z" transform="translate(-452.42 -46.89)"/>
  <path id="Path_263" data-name="Path 263" class="cls-2" d="M798.808,114.45H797.1a2.63,2.63,0,0,1-2.092-.726,3.348,3.348,0,0,1-.6-2.135V86.1H789.5v25.788a8.459,8.459,0,0,0,.384,2.562,5.533,5.533,0,0,0,1.2,2.135,5.742,5.742,0,0,0,2.092,1.452,8,8,0,0,0,3.031.555h2.6a.428.428,0,0,0,.427-.427v-3.288A.428.428,0,0,0,798.808,114.45Z" transform="translate(-452.42 -49.297)"/>
  <g id="Group_157" data-name="Group 157" transform="translate(110.026 104.86)">
    <path id="Path_264" data-name="Path 264" class="cls-1" d="M257.7,253.129V245.7h4.739v1.025H258.81V248.9h3.074v.982H258.81v2.22h3.629v1.025Z" transform="translate(-257.7 -245.615)"/>
    <path id="Path_265" data-name="Path 265" class="cls-1" d="M275.581,251.819a1.714,1.714,0,0,1-.555.683,2.672,2.672,0,0,1-.854.427,4.3,4.3,0,0,1-1.067.128,4.736,4.736,0,0,1-1.452-.214,2.5,2.5,0,0,1-1.153-.768l.768-.726a2.1,2.1,0,0,0,.854.555,3.669,3.669,0,0,0,1.025.171,1.717,1.717,0,0,0,1.11-.3,1.018,1.018,0,0,0,.384-.854.914.914,0,0,0-.3-.768,1.3,1.3,0,0,0-.3-.213,4.427,4.427,0,0,0-.512-.128l-.854-.128a2.674,2.674,0,0,1-1.409-.6,1.929,1.929,0,0,1-.555-1.409,2.23,2.23,0,0,1,.171-.9,2.753,2.753,0,0,1,.47-.683,1.707,1.707,0,0,1,.769-.427,3.555,3.555,0,0,1,2.305.043,3.377,3.377,0,0,1,1.025.64l-.726.726a1.929,1.929,0,0,0-.726-.47,2.754,2.754,0,0,0-.854-.128,1.558,1.558,0,0,0-1.025.342,1.166,1.166,0,0,0-.342.811,1.247,1.247,0,0,0,.085.384.765.765,0,0,0,.213.3,1.569,1.569,0,0,0,.854.342l.854.128a3.542,3.542,0,0,1,.854.214,2.419,2.419,0,0,1,.555.342,1.783,1.783,0,0,1,.47.64,2.76,2.76,0,0,1,.171.854A3.306,3.306,0,0,1,275.581,251.819Z" transform="translate(-265.035 -245.5)"/>
    <path id="Path_266" data-name="Path 266" class="cls-1" d="M287.56,246.725v6.4h-1.11v-6.4H284.4V245.7h5.209v1.025Z" transform="translate(-273 -245.615)"/>
    <path id="Path_267" data-name="Path 267" class="cls-1" d="M300.766,253.129l-.512-1.494h-2.946l-.512,1.494h-1.2l2.733-7.429h.9l2.733,7.429Zm-1.964-5.764-1.153,3.288h2.263Z" transform="translate(-279.419 -245.615)"/>
    <path id="Path_268" data-name="Path 268" class="cls-1" d="M317.694,250.183a4.726,4.726,0,0,1-.085.811,5.155,5.155,0,0,1-.213.769,2.148,2.148,0,0,1-1.324,1.2,2.949,2.949,0,0,1-1.067.171h-2.6V245.7H315a2.949,2.949,0,0,1,1.067.171,2.843,2.843,0,0,1,.854.512,3.06,3.06,0,0,1,.47.64,3.6,3.6,0,0,1,.213.726,4.7,4.7,0,0,1,.085.769v1.665Zm-1.2-2.135a1.719,1.719,0,0,0-.342-.854,1.611,1.611,0,0,0-1.281-.512H313.51v5.38h1.366a1.672,1.672,0,0,0,1.281-.512,1.426,1.426,0,0,0,.342-.9,13.288,13.288,0,0,0,.043-1.366A10.436,10.436,0,0,0,316.5,248.048Z" transform="translate(-289.046 -245.615)"/>
    <path id="Path_269" data-name="Path 269" class="cls-1" d="M332.994,250.239a3.829,3.829,0,0,1-.085.768,2.25,2.25,0,0,1-.214.64,1.759,1.759,0,0,1-.427.555,2.711,2.711,0,0,1-2.989.6,2.382,2.382,0,0,1-.854-.6,4.826,4.826,0,0,1-.427-.555,3.76,3.76,0,0,1-.214-.64,4.711,4.711,0,0,1-.085-.768v-1.964a3.834,3.834,0,0,1,.085-.768,2.251,2.251,0,0,1,.214-.64,1.76,1.76,0,0,1,.427-.555,2.819,2.819,0,0,1,.854-.6,2.973,2.973,0,0,1,1.067-.213,2.8,2.8,0,0,1,1.067.213,2.382,2.382,0,0,1,.854.6,4.818,4.818,0,0,1,.427.555,3.759,3.759,0,0,1,.214.64,4.7,4.7,0,0,1,.085.768v1.964Zm-1.153-1.879c0-.256-.043-.47-.043-.64-.043-.171-.085-.3-.128-.427a.765.765,0,0,0-.213-.3,1.9,1.9,0,0,0-.47-.342,1.426,1.426,0,0,0-.64-.128,1.713,1.713,0,0,0-.64.128,1.338,1.338,0,0,0-.47.342,1.3,1.3,0,0,0-.213.3,2.652,2.652,0,0,0-.128.427,2.827,2.827,0,0,0-.043.64v1.879c0,.256.043.47.043.64.043.171.085.3.128.427a.766.766,0,0,0,.213.3,1.9,1.9,0,0,0,.47.342,1.425,1.425,0,0,0,.64.128,1.713,1.713,0,0,0,.64-.128,1.9,1.9,0,0,0,.47-.342,1.294,1.294,0,0,0,.213-.3c.043-.128.085-.256.128-.427a2.827,2.827,0,0,0,.043-.64V249.3A3.427,3.427,0,0,0,331.841,248.361Z" transform="translate(-297.813 -245.5)"/>
    <path id="Path_270" data-name="Path 270" class="cls-1" d="M354.194,250.183a4.726,4.726,0,0,1-.085.811,5.162,5.162,0,0,1-.213.769,2.148,2.148,0,0,1-1.324,1.2,2.949,2.949,0,0,1-1.067.171h-2.6V245.7h2.6a2.949,2.949,0,0,1,1.067.171,2.843,2.843,0,0,1,.854.512,3.059,3.059,0,0,1,.47.64,3.607,3.607,0,0,1,.213.726,4.7,4.7,0,0,1,.085.769v1.665Zm-1.2-2.135a1.719,1.719,0,0,0-.341-.854,1.611,1.611,0,0,0-1.281-.512H350.01v5.38h1.366a1.672,1.672,0,0,0,1.281-.512,1.426,1.426,0,0,0,.341-.9,13.288,13.288,0,0,0,.043-1.366A10.436,10.436,0,0,0,353,248.048Z" transform="translate(-309.962 -245.615)"/>
    <path id="Path_271" data-name="Path 271" class="cls-1" d="M369.494,250.239a3.829,3.829,0,0,1-.085.768,2.251,2.251,0,0,1-.213.64,1.761,1.761,0,0,1-.427.555,2.711,2.711,0,0,1-2.989.6,2.382,2.382,0,0,1-.854-.6,4.829,4.829,0,0,1-.427-.555,3.758,3.758,0,0,1-.214-.64,4.708,4.708,0,0,1-.085-.768v-1.964a3.832,3.832,0,0,1,.085-.768,2.25,2.25,0,0,1,.214-.64,1.76,1.76,0,0,1,.427-.555,2.82,2.82,0,0,1,.854-.6,2.973,2.973,0,0,1,1.067-.213,2.8,2.8,0,0,1,1.067.213,2.382,2.382,0,0,1,.854.6,4.832,4.832,0,0,1,.427.555,3.761,3.761,0,0,1,.213.64,4.7,4.7,0,0,1,.085.768v1.964Zm-1.153-1.879c0-.256-.043-.47-.043-.64-.043-.171-.085-.3-.128-.427a.766.766,0,0,0-.214-.3,1.9,1.9,0,0,0-.47-.342,1.426,1.426,0,0,0-.64-.128,1.713,1.713,0,0,0-.64.128,1.338,1.338,0,0,0-.47.342,1.3,1.3,0,0,0-.213.3,2.652,2.652,0,0,0-.128.427,2.827,2.827,0,0,0-.043.64v1.879c0,.256.043.47.043.64.043.171.085.3.128.427a.766.766,0,0,0,.213.3,1.9,1.9,0,0,0,.47.342,1.425,1.425,0,0,0,.64.128,1.713,1.713,0,0,0,.64-.128,1.9,1.9,0,0,0,.47-.342,1.3,1.3,0,0,0,.214-.3c.043-.128.085-.256.128-.427a2.827,2.827,0,0,0,.043-.64v-1.879Z" transform="translate(-318.729 -245.5)"/>
    <path id="Path_272" data-name="Path 272" class="cls-1" d="M389.5,253.129l-1.58-3.117H386.51v3.117H385.4V245.7h2.861a2.172,2.172,0,0,1,.939.171,2.959,2.959,0,0,1,.726.427,1.951,1.951,0,0,1,.47.683,1.912,1.912,0,0,1,.171.854,1.725,1.725,0,0,1-.427,1.281,2.554,2.554,0,0,1-1.067.683l1.708,3.288H389.5Zm-.384-6.105a1.269,1.269,0,0,0-.9-.3h-1.665v2.348h1.665a1.2,1.2,0,0,0,.9-.3,1.123,1.123,0,0,0,.342-.854A1.223,1.223,0,0,0,389.115,247.024Z" transform="translate(-330.878 -245.615)"/>
    <path id="Path_273" data-name="Path 273" class="cls-1" d="M400.9,253.129V245.7h1.11v7.429Z" transform="translate(-339.76 -245.615)"/>
    <path id="Path_274" data-name="Path 274" class="cls-1" d="M412.394,250.239a3.827,3.827,0,0,1-.085.768,2.25,2.25,0,0,1-.213.64,1.763,1.763,0,0,1-.427.555,2.711,2.711,0,0,1-2.989.6,2.383,2.383,0,0,1-.854-.6,4.835,4.835,0,0,1-.427-.555,3.747,3.747,0,0,1-.214-.64,4.7,4.7,0,0,1-.085-.768v-1.964a3.827,3.827,0,0,1,.085-.768,2.247,2.247,0,0,1,.214-.64,1.761,1.761,0,0,1,.427-.555,2.821,2.821,0,0,1,.854-.6,2.973,2.973,0,0,1,1.067-.213,2.8,2.8,0,0,1,1.067.213,2.382,2.382,0,0,1,.854.6,4.846,4.846,0,0,1,.427.555,3.755,3.755,0,0,1,.213.64,4.7,4.7,0,0,1,.085.768v1.964Zm-1.153-1.879c0-.256-.043-.47-.043-.64-.043-.171-.085-.3-.128-.427a.766.766,0,0,0-.214-.3,1.894,1.894,0,0,0-.47-.342,1.426,1.426,0,0,0-.64-.128,1.713,1.713,0,0,0-.64.128,1.337,1.337,0,0,0-.47.342,1.3,1.3,0,0,0-.214.3,2.647,2.647,0,0,0-.128.427,2.825,2.825,0,0,0-.043.64v1.879c0,.256.043.47.043.64.043.171.085.3.128.427a.766.766,0,0,0,.214.3,1.9,1.9,0,0,0,.47.342,1.425,1.425,0,0,0,.64.128,1.713,1.713,0,0,0,.64-.128,1.9,1.9,0,0,0,.47-.342,1.3,1.3,0,0,0,.214-.3c.043-.128.085-.256.128-.427a2.825,2.825,0,0,0,.043-.64V249.3A3.422,3.422,0,0,0,411.241,248.361Z" transform="translate(-343.313 -245.5)"/>
    <path id="Path_275" data-name="Path 275" class="cls-1" d="M433.594,250.183a4.729,4.729,0,0,1-.085.811,5.162,5.162,0,0,1-.213.769,2.148,2.148,0,0,1-1.324,1.2,2.949,2.949,0,0,1-1.067.171h-2.6V245.7h2.6a2.949,2.949,0,0,1,1.067.171,2.843,2.843,0,0,1,.854.512,3.062,3.062,0,0,1,.47.64,3.607,3.607,0,0,1,.213.726,4.7,4.7,0,0,1,.085.769v1.665Zm-1.2-2.135a1.719,1.719,0,0,0-.342-.854,1.611,1.611,0,0,0-1.281-.512h-1.324v5.38h1.366a1.672,1.672,0,0,0,1.281-.512,1.426,1.426,0,0,0,.342-.9,13.279,13.279,0,0,0,.043-1.366A9.368,9.368,0,0,0,432.4,248.048Z" transform="translate(-355.462 -245.615)"/>
    <path id="Path_276" data-name="Path 276" class="cls-1" d="M444.1,253.129V245.7h4.739v1.025H445.21V248.9h3.074v.982H445.21v2.22h3.629v1.025Z" transform="translate(-364.516 -245.615)"/>
    <path id="Path_277" data-name="Path 277" class="cls-1" d="M466.013,251.863a2.424,2.424,0,0,1-.512.769,2.326,2.326,0,0,1-.768.47,2.3,2.3,0,0,1-.939.171,2.249,2.249,0,0,1-.982-.171,2.5,2.5,0,0,1-.811-.555l.768-.726a1.671,1.671,0,0,0,.427.342,1.2,1.2,0,0,0,.64.128,1.286,1.286,0,0,0,.982-.384,1.449,1.449,0,0,0,.342-1.11v-5h1.11v5.081A6.6,6.6,0,0,1,466.013,251.863Z" transform="translate(-374.773 -245.672)"/>
    <path id="Path_278" data-name="Path 278" class="cls-1" d="M478.466,253.129l-.512-1.494h-2.946l-.512,1.494h-1.2l2.732-7.429h.9l2.733,7.429Zm-1.964-5.764-1.153,3.288h2.263Z" transform="translate(-381.249 -245.615)"/>
    <path id="Path_279" data-name="Path 279" class="cls-1" d="M494.826,253.129l-3.416-5.209v5.209H490.3V245.7h1.025l3.416,5.209V245.7h1.11v7.429h-1.025Z" transform="translate(-390.991 -245.615)"/>
    <path id="Path_280" data-name="Path 280" class="cls-1" d="M507.4,253.129V245.7h4.739v1.025H508.51V248.9h3.074v.982H508.51v2.22h3.629v1.025Z" transform="translate(-400.79 -245.615)"/>
    <path id="Path_281" data-name="Path 281" class="cls-1" d="M521.6,253.129V245.7h1.11v7.429Z" transform="translate(-408.927 -245.615)"/>
    <path id="Path_282" data-name="Path 282" class="cls-1" d="M532.4,253.129l-1.58-3.117H529.41v3.117H528.3V245.7h2.861a2.172,2.172,0,0,1,.939.171,2.958,2.958,0,0,1,.726.427,1.952,1.952,0,0,1,.47.683,1.913,1.913,0,0,1,.171.854,1.725,1.725,0,0,1-.427,1.281,2.555,2.555,0,0,1-1.067.683l1.708,3.288H532.4Zm-.384-6.105a1.269,1.269,0,0,0-.9-.3h-1.665v2.348h1.665a1.2,1.2,0,0,0,.9-.3,1.123,1.123,0,0,0,.342-.854A1.223,1.223,0,0,0,532.015,247.024Z" transform="translate(-412.766 -245.615)"/>
    <path id="Path_283" data-name="Path 283" class="cls-1" d="M548.594,250.239a3.827,3.827,0,0,1-.085.768,2.252,2.252,0,0,1-.213.64,1.761,1.761,0,0,1-.427.555,2.711,2.711,0,0,1-2.989.6,2.382,2.382,0,0,1-.854-.6,4.828,4.828,0,0,1-.427-.555,3.75,3.75,0,0,1-.214-.64,4.708,4.708,0,0,1-.085-.768v-1.964a3.832,3.832,0,0,1,.085-.768,2.248,2.248,0,0,1,.214-.64,1.761,1.761,0,0,1,.427-.555,2.82,2.82,0,0,1,.854-.6,2.973,2.973,0,0,1,1.067-.213,2.8,2.8,0,0,1,1.067.213,2.383,2.383,0,0,1,.854.6,4.837,4.837,0,0,1,.427.555,3.761,3.761,0,0,1,.213.64,4.714,4.714,0,0,1,.085.768v1.964Zm-1.153-1.879c0-.256-.043-.47-.043-.64-.043-.171-.085-.3-.128-.427a.766.766,0,0,0-.214-.3,1.9,1.9,0,0,0-.47-.342,1.426,1.426,0,0,0-.64-.128,1.713,1.713,0,0,0-.64.128,1.337,1.337,0,0,0-.47.342,1.3,1.3,0,0,0-.213.3,2.645,2.645,0,0,0-.128.427,2.829,2.829,0,0,0-.043.64v1.879c0,.256.043.47.043.64.043.171.085.3.128.427a.766.766,0,0,0,.213.3,1.9,1.9,0,0,0,.47.342,1.425,1.425,0,0,0,.64.128,1.714,1.714,0,0,0,.64-.128,1.9,1.9,0,0,0,.47-.342,1.3,1.3,0,0,0,.214-.3c.043-.128.085-.256.128-.427a2.829,2.829,0,0,0,.043-.64V249.3A6.83,6.83,0,0,0,547.441,248.361Z" transform="translate(-421.362 -245.5)"/>
  </g>
  <rect id="Rectangle_216" data-name="Rectangle 216" class="cls-1" width="130.819" height="0.598" transform="translate(0 74.93)"/>
  <rect id="Rectangle_217" data-name="Rectangle 217" class="cls-1" width="130.819" height="0.598" transform="translate(215.996 74.93)"/>
</svg>
